<svg xmlns="http://www.w3.org/2000/svg" width="24" height="24" viewBox="0 0 24 24" fill="none">
  <g fill="none" stroke="#6B7280" stroke-width="1.6" stroke-linecap="round" stroke-linejoin="round"><circle cx="12" cy="3.85" r="1.95"></circle><path transform="translate(2.4 0) scale(0.8 1)" d="M10.8 6.5 Q9.9 6.8 9.6 7.3 Q8.7 8.1 7.9 8.9 Q6.9 10 6.6 12.1 Q6.3 14 6 15.7 Q5.9 16.5 6.9 16.1 Q7.4 14.3 7.7 12.7 Q8.1 11.1 8.9 10.7 Q9.2 12.1 9.3 13.5 Q9.2 14.6 9 15.6 Q8.8 17.4 8.9 19.2 Q9 21 9.3 22.7 Q9.5 23.4 10.5 23 Q11.2 19.7 11.4 16.4 Q11.6 15.7 12 15.6 Q12.4 15.7 12.6 16.4 Q12.8 19.7 13.5 23 Q14.5 23.4 14.7 22.7 Q15 21 15.1 19.2 Q15.2 17.4 15 15.6 Q14.8 14.6 14.7 13.5 Q14.8 12.1 15.1 10.7 Q15.9 11.1 16.3 12.7 Q16.6 14.3 17.1 16.1 Q18.1 16.5 18 15.7 Q17.7 14 17.4 12.1 Q17.1 10 16.1 8.9 Q15.3 8.1 14.4 7.3 Q14.1 6.8 13.2 6.5 Z"></path></g><g fill="#3FF2C2" transform="translate(2.4 0) scale(0.8 1)"><ellipse cx="7" cy="11" rx="1.15" ry="1.9"></ellipse><ellipse cx="17" cy="11" rx="1.15" ry="1.9"></ellipse></g>
</svg>